# xmcd
#
# Track frame offsets:
#	150
#	58612
#	117656
#	182791
#
# Disc length: 3236 seconds
#
# Revision: 2
# Processed by: cddbd v1.5.2PL0 Copyright (c) Steve Scherf et al.
# Submitted via: EZCDAudioConverter 8.0.2.1
#
DISCID=360ca204
DTITLE=Hương Lan, Ngọc Sơn - Liên Khúc Quê Hương. Chim Sáo Ngày Xưa
DYEAR=2005
DGENRE=
TTITLE0=Pard 1. LK Quê Hưong. Chim Sáo Ngày Xưa
TTITLE1=Pard 2. LK Quê Hưong. Chim Sáo Ngày Xưa
TTITLE2=Pard 3. LK Quê Hưong. Chim Sáo Ngày Xưa
TTITLE3=Pard 4. LK Quê Hưong. Chim Sáo Ngày Xưa
EXTD=
EXTT0=
EXTT1=
EXTT2=
EXTT3=
PLAYORDER=
